# xmcd
#
# Track frame offsets:
#	750
#	17000
#	39545
#	57302
#	74949
#	91749
#	109296
#	128736
#	146861
#	164157
#	177182
#	192770
#	213195
#	233807
#	253695
#	272432
#	289795
#	306657
#	325718
#	358100
#
# Disc length: 4782 seconds
#
# Revision: 0
# Processed by: cddbd v1.5.2PL0 Copyright (c) Steve Scherf et al.
# Submitted via: audiograbber 1.83.01
#
DISCID=3812a414
DTITLE=Kuschel Rock 15 CD 2 - Kuschel Rock 15 CD 2
DYEAR=2001
DGENRE=Soft Rock
TTITLE0=Uncle Kracker - Follow Me
TTITLE1=Robbie Williams - Eterniry 
TTITLE2=Destiny's Child - Emotion (Album Version)
TTITLE3=Whitney Houston - Saving all my Love for you
TTITLE4=Blue - All rise (Radio Version)
TTITLE5=Ricky Martin - Nobody wants to be lonely  (Original Version)
TTITLE6=Celine Dion - Falling into you 
TTITLE7=NELLY FURTADO Nelly Furtado - I'm like a Bird I
TTITLE8=Travis - Sing 
TTITLE9=Him - In Joy and Sorrow (Short String Version)
TTITLE10=Wonderall - Witchcraft (Unplugged Version)
TTITLE11=R. Kelly  - The Storm is over now 
TTITLE12=Juilette - It's heavenly 
TTITLE13=Jennifer Lopez - Secretly
TTITLE14=Joe Duet with NSYNC - I believe in you 
TTITLE15=BRITNEY SPEARS Britney Spears - Don't let me be the last to know (Albu
TTITLE15=m Version)
TTITLE16=Vonda Shepard and  Robert Downey Jr.   - Chances Are
TTITLE17=Joshua Kadison - I believe in you
TTITLE18=Sarah Connor  - I'll find you in my Heart 
TTITLE19=Daten - CD
EXTD=
EXTT0=
EXTT1=
EXTT2=
EXTT3=
EXTT4=
EXTT5=
EXTT6=
EXTT7=
EXTT8=
EXTT9=
EXTT10=
EXTT11=
EXTT12=
EXTT13=
EXTT14=
EXTT15=
EXTT16=
EXTT17=
EXTT18=
EXTT19=
PLAYORDER=
